<?xml version="1.0" encoding="UTF-8" standalone="no"?>
<svg
   version="1.1"
   width="1080px"
   height="2186px"
   viewBox="0 0 1080 2186"
   id="svg147"
   sodipodi:docname="logo3.svg"
   inkscape:version="1.2 (dc2aedaf03, 2022-05-15)"
   xmlns:inkscape="http://www.inkscape.org/namespaces/inkscape"
   xmlns:sodipodi="http://sodipodi.sourceforge.net/DTD/sodipodi-0.dtd"
   xmlns="http://www.w3.org/2000/svg"
   xmlns:svg="http://www.w3.org/2000/svg">
  <defs
     id="defs151" />
  <sodipodi:namedview
     id="namedview149"
     pagecolor="#ffffff"
     bordercolor="#000000"
     borderopacity="0.25"
     inkscape:showpageshadow="2"
     inkscape:pageopacity="0.0"
     inkscape:pagecheckerboard="0"
     inkscape:deskcolor="#d1d1d1"
     showgrid="false"
     inkscape:zoom="0.37923147"
     inkscape:cx="689.55247"
     inkscape:cy="1168.152"
     inkscape:window-width="1920"
     inkscape:window-height="1009"
     inkscape:window-x="-8"
     inkscape:window-y="-8"
     inkscape:window-maximized="1"
     inkscape:current-layer="layer1" />
  <g
     id="layer1"
     transform="matrix(0.37652897,0,0,0.37652897,208.01337,501.38142)">
    <g
       style="fill:#fe5721;fill-opacity:1;stroke-linejoin:miter"
       id="g4">
      <path
         d="m -75.5161,-804.61786 v 0 q -41.92158,-9.58274 -157.64538,66.00153 l 0.38778,-0.27147 q -66.8095,50.06694 -89.7631,120.3 c -0.0394,0.12064 -0.0822,0.2407 -0.12784,0.35916 v 0 q -21.87903,56.77024 -18.86234,128.54454 c 0.004,0.0853 0.006,0.17076 0.006,0.25615 v 0 q 0.41328,58.40341 24.07124,102.71887 l -0.43524,-0.71408 q 15.01342,21.73883 45.02844,30.07602 c 2.84781,0.79104 4.94286,3.21369 5.31479,6.14582 0.37191,2.93212 -1.05191,5.80114 -3.61203,7.27812 l -1.6e-4,1e-4 q 6.04126,-3.48513 2.49659,-9.62823 l 2.7e-4,4.6e-4 q -1.1462,-1.98679 -2.79327,-2.62561 l -9e-5,-2e-5 q 8.20324,3.18157 104.78791,12.87322 c 0.19509,0.0196 0.38941,0.047 0.58229,0.0821 v 0 q 20.21787,3.68289 30.81838,9.19146 c 0.0659,0.0342 0.13092,0.0693 0.19571,0.1055 v 0 q 32.33407,18.0673 28.95476,60.0266 l 0.001,-0.0138 q -4.86222,61.83384 -82.45965,141.99191 c -0.12699,0.13118 -0.25883,0.25757 -0.39525,0.37891 v 0 q -101.65862,90.424806 -176.57961,110.755319 c -3.91052,1.061153 -7.94082,-1.248707 -9.00197,-5.159218 -1.06117,-3.910511 1.24868,-7.940838 5.1592,-9.001991 v 0 q 71.5903,-19.42669 170.67024,-107.55779 l -0.39524,0.3789 q 73.92572,-76.36523 78.37411,-132.9363 l 0.001,-0.0138 q 2.62295,-32.56793 -21.48622,-46.0394 l 0.19571,0.1055 q -8.63887,-4.48923 -26.68196,-7.77594 l 0.58229,0.0821 q -98.56733,-9.89062 -108.62873,-13.79285 l -1e-4,-2e-5 q -3.1732,-1.23075 -4.61054,-3.72218 l 2.8e-4,4.7e-4 q -3.78954,-6.56747 2.88036,-10.41529 l 1.7026,13.42404 q -35.13933,-9.76059 -53.1751,-35.87558 c -0.15853,-0.22954 -0.30386,-0.46798 -0.43524,-0.71408 v 0 q -25.36108,-47.50564 -25.79992,-109.52539 l 0.006,0.25617 q -3.14474,-74.82134 19.83103,-134.43744 l -0.12785,0.3592 q 24.3932,-74.6377 94.911,-127.4837 c 0.1264,-0.0947 0.25554,-0.1851 0.38779,-0.27147 v 0 q 120.94182,-78.99237 168.93912,-68.02083 c 3.95004,0.903 6.42022,4.837 5.517286,8.78707 -0.902931,3.95007 -4.837051,6.42023 -8.787096,5.51727 z"
         id="path2" />
    </g>
    <g
       style="fill:#fe5721;fill-opacity:1;stroke-linejoin:miter"
       id="g8">
      <path
         d="m -2.9880583,-279.18103 v 0 Q 136.51596,-294.40973 206.91487,-394.13776 c 0.19319,-0.27368 0.40491,-0.53378 0.63364,-0.77854 v 0 q 37.66136,-40.29653 47.18373,-107.55175 l -0.0629,0.6546 q 2.2231,-43.56521 -28.93485,-52.90525 l 0.15798,0.0454 q -54.76508,-15.08805 -141.11944,60.84292 l 0.223394,-0.20478 Q 24.253948,-436.00504 0.03184366,-330.6725 l 0.13968086,-0.81566 q -9.36847152,82.42658 -4.74715992,99.36183 c 0.068722,0.25185 0.1239524,0.50714 0.1654594,0.76488 v 0 q 9.4761974,58.84041 26.441643,67.265 l -1.405177,-0.52645 q 63.86736,16.71793 149.61171,-65.77061 c 2.92005,-2.80917 7.5645,-2.71929 10.37368,0.20076 2.80917,2.92005 2.71928,7.5645 -0.20076,10.37367 v 0 q -91.673615,88.19262 -163.500337,69.39125 c -0.485166,-0.12699 -0.955997,-0.30339 -1.405178,-0.52644 h -10e-7 q -23.725907,-11.78165 -34.402251,-78.07411 l 0.165461,0.76488 q -5.36335,-19.65453 4.323442,-104.88176 c 0.03118,-0.2743 0.07781,-0.54664 0.139681,-0.81568 v 0 Q 10.939098,-443.57797 74.86038,-504.64496 c 0.073,-0.0697 0.147585,-0.13812 0.2234,-0.20477 v 0 q 92.30346,-81.16197 154.70605,-63.96977 c 0.0528,0.0145 0.10549,0.0296 0.15797,0.0454 v 0 q 42.1856,12.6457 39.3758,67.70846 c -0.0112,0.21902 -0.0322,0.43747 -0.0629,0.6546 v 0 q -10.17105,71.83676 -50.99196,115.51391 l 0.63364,-0.77853 q -74.21535,105.13446 -220.2980907,121.0813 c -4.0280021,0.4397 -7.6497963,-2.46914 -8.0895053,-6.49716 -0.439709,-4.02802 2.469176,-7.64981 6.4971777,-8.08951 z"
         id="path6" />
    </g>
    <g
       style="fill:#fe5721;fill-opacity:1;stroke-linejoin:miter"
       id="g12">
      <path
         d="m 457.38467,-255.86858 v 0 q -25.01721,5.44997 -63.33647,-87.10756 l 0.0206,0.0492 q -32.004,-75.74149 -26.69419,-135.72968 c 0.0708,-0.80011 0.27259,-1.58315 0.59717,-2.3179 v 0 q 1.78812,-4.04755 3.69034,-6.28589 v 4e-5 q 4.93695,-5.8094 11.14572,-3.0664 v 0 q 2.9069,1.28423 4.7668,4.47026 v 0 q 5.0077,8.57824 6.44078,48.15009 l -0.001,-0.0286 q 3.7072,92.41129 -6.88945,106.03595 l 1.5e-4,-2.1e-4 q -0.25272,0.32498 -0.51678,0.62695 c -1.24362,1.42221 -2.98795,2.30988 -4.86969,2.47813 h 3e-5 q -6.75066,0.60357 -11.11493,-4.6363 v -3e-5 q -4.06391,-4.87924 -4.97083,-15.02304 v 3e-5 q -0.2634,-2.94589 -0.28747,-6.43024 l 0.007,0.27884 q -1.85386,-41.22886 3.22934,-74.05176 l -0.002,0.0164 q 8.46957,-55.51724 33.28414,-94.9584 c 0.0841,-0.13366 0.17266,-0.26476 0.2652,-0.3927 v 0 q 57.58234,-79.61216 140.41496,-70.2121 c 4.0261,0.45691 6.9195,4.09104 6.4626,8.11714 -0.4569,4.02605 -4.09106,6.9195 -8.1171,6.4626 v 0 q -74.3135,-8.4333 -126.8711,64.2317 l 0.26518,-0.3927 q -23.18914,36.8577 -31.19838,89.3574 l -0.002,0.0164 q -4.8595,31.37851 -3.07133,71.14697 c 0.004,0.093 0.007,0.18579 0.007,0.27884 v 0 q 0.0199,2.88022 0.22955,5.22498 v 4e-5 q 0.4989,5.58025 1.63055,6.93892 v -2e-5 q -0.5574,-0.66926 -1.46655,-0.58796 l -4.86965,2.47812 q -0.0133,0.0152 -0.0201,0.0239 l 1.7e-4,-2.3e-4 q 7.30258,-9.38931 3.81048,-96.43945 l -10e-4,-0.0286 q -1.29965,-35.8883 -4.44921,-41.2835 v 0 q 0.53579,0.91785 1.97563,1.55395 v 0 q 3.8096,1.68305 5.96513,-0.8534 v 4e-5 q -0.52253,0.61486 -1.44961,2.71338 l 0.59716,-2.3179 q -4.98768,56.34884 25.59422,128.72473 l 0.0206,0.0491 q 33.62622,81.22184 46.65582,78.38334 c 3.95908,-0.86249 7.86772,1.64783 8.7302,5.60691 0.86248,3.95907 -1.64783,7.8677 -5.60691,8.73017 z"
         id="path10" />
    </g>
    <g
       style="fill:#fe5721;fill-opacity:1;stroke-linejoin:miter"
       id="g16">
      <path
         d="m 651.0632,-530.9729 v 0 q 48.29746,83.17236 101.58237,194.70242 l -0.0552,-0.11319 q 4.42007,8.85739 6.82247,10.19693 v 0 q -1.1202,-0.62463 -2.6032,0.11544 l -2e-4,7e-5 q -0.17604,0.0878 -0.31166,0.18558 c 0.65601,-0.47272 1.38562,-0.83371 2.15936,-1.06845 h -6e-5 q -0.38014,0.11532 -0.56628,0.25616 v 0 q 2.44334,-1.84863 5.72284,-12.73968 l -0.0978,0.35696 q 32.42653,-131.35321 61.3287,-221.91494 l 0.0357,-0.10883 q 14.84094,-44.11347 35.5823,-72.88764 c 2.36936,-3.28698 6.9547,-4.03088 10.2417,-1.66149 3.28696,2.36936 4.03086,6.95471 1.6615,10.24169 v 0 q -19.4445,26.97497 -33.57815,68.98627 l 0.0357,-0.1088 q -28.75275,90.09357 -61.0617,220.97053 c -0.0296,0.11987 -0.0622,0.23874 -0.0978,0.35697 v 0 q -4.6595,15.47417 -10.91977,20.21056 v 0 q -1.90173,1.43881 -4.0271,2.08362 l 2.1593,-1.06845 q -0.82813,0.59677 -1.7146,1.03915 l -1.8e-4,6e-5 q -5.44875,2.71909 -11.09465,-0.4291 v 0 q -6.36165,-3.54724 -12.80586,-16.46074 c -0.0188,-0.0378 -0.037,-0.0751 -0.0552,-0.11318 v 0 Q 686.3752,-440.9425 638.3741,-523.6045 c -2.03474,-3.50396 -0.84364,-7.994 2.6603,-10.02874 3.504,-2.03473 7.99404,-0.84363 10.0288,2.66034 z"
         id="path14" />
    </g>
    <g
       style="fill:#fe5721;fill-opacity:1;stroke-linejoin:miter"
       id="g20">
      <path
         d="m 900.61224,-496.3766 v 0 q 65.48542,19.93065 170.74836,-18.3422 l -0.4445,0.1782 q 46.2669,-20.32946 59.4119,-42.5581 l -0.1472,0.2608 q 9.6543,-17.96026 -6.0354,-26.39403 v 3e-5 q -1.0739,-0.57724 -2.2562,-1.1248 l 1.8945,0.5824 q -65.7842,-10.801 -140.83424,53.0814 l 0.11904,-0.10355 q -72.908,64.81385 -64.86196,127.25022 c 0.009,0.067 0.0164,0.13397 0.0232,0.20123 v 0 q 4.03074,39.95163 40.9846,79.81302 l -0.2727,-0.2789 q 35.947,34.86081 72.11236,34.75262 l 0.031,-4e-5 q 67.3276,0.0873 112.0582,-111.98516 c 1.5019,-3.76324 5.7702,-5.59634 9.5335,-4.09436 3.7633,1.50199 5.5963,5.77032 4.0944,9.53357 v 0 q -48.4213,121.31958 -125.7051,121.2193 l 0.032,-3e-5 q -42.13736,0.12608 -82.37146,-38.89232 c -0.0933,-0.0905 -0.18435,-0.18355 -0.2727,-0.2789 v 0 q -40.2986,-43.46937 -44.82327,-88.31584 l 0.0231,0.20124 q -9.03696,-70.12662 69.6659,-140.0921 c 0.0391,-0.0347 0.0791,-0.0696 0.11904,-0.10356 v 0 q 80.22819,-68.29014 152.72259,-56.38734 c 0.6549,0.10756 1.2923,0.3035 1.8946,0.5824 v 0 q 1.5793,0.7315 3.037,1.51497 v 3e-5 q 28.6142,15.3813 12.0126,46.2659 c -0.047,0.088 -0.096,0.17474 -0.1472,0.2608 v 0 q -15.5488,26.29346 -66.1391,48.5228 c -0.1463,0.0642 -0.2945,0.12362 -0.4445,0.1782 v 0 q -109.86472,39.94606 -180.03459,18.5897 c -3.87634,-1.17977 -6.06243,-5.27858 -4.8826,-9.15496 1.1798,-3.87637 5.2786,-6.06241 9.15494,-4.88264 z"
         id="path18" />
    </g>
    <g
       style="fill:#fe5721;fill-opacity:1;stroke-linejoin:miter"
       id="g24">
      <path
         d="m 1324.4614,-409.9299 10e-5,-1.2e-4 q -0.8405,0.9609 -1.7639,1.73362 l 2e-4,-1e-4 q -5.8001,4.85388 -12.844,2.0996 l 10e-5,4e-5 q -2.7603,-1.07926 -5.4358,-3.41977 v -3e-5 q -13.9486,-12.20221 -34.7771,-72.07221 c -0.05,-0.1423 -0.095,-0.28628 -0.1353,-0.43136 v 0 q -12.1875,-43.50007 -21.1633,-93.69627 c -0.034,-0.19115 -0.061,-0.3843 -0.08,-0.57757 v 0 q -2.5031,-25.60183 1.9692,-43.85993 c 0.257,-1.0489 0.7422,-2.0281 1.4213,-2.86785 l -7e-4,9.1e-4 q 0.4102,-0.50756 0.8329,-0.95296 l -2e-4,2.7e-4 q 6.5136,-6.86591 13.3178,-1.36347 v -1e-4 q 1.4416,1.1658 2.5534,2.93016 l 3e-4,2.4e-4 q 2.7071,4.2964 4.2861,14.4184 c 0.031,0.1985 0.054,0.3984 0.068,0.59875 v 0 l 8.3131,114.33895 -14.1268,-2.1988 q 56.6751,-141.32264 148.7069,-120.10743 c 3.9483,0.91023 6.4112,4.84887 5.5011,8.79723 -0.9102,3.9484 -4.8489,6.4113 -8.7973,5.5011 v 0 q -79.792,-18.3937 -131.7918,111.27076 c -1.2715,3.17041 -4.5625,5.04391 -7.9378,4.51854 -3.3752,-0.52535 -5.9414,-3.3105 -6.1891,-6.71736 v 0 l -8.3131,-114.3389 0.068,0.59876 q -1.1117,-7.1263 -2.2027,-8.85773 l 3e-4,2.3e-4 q 0.185,0.29365 0.634,0.65675 v -1.5e-4 q 3.7371,3.0221 6.5538,0.0529 l -1e-4,2.6e-4 q -0.023,0.024 -0.067,0.0784 l 1.4205,-2.8669 q -3.8771,15.8284 -1.6174,38.9412 l -0.08,-0.5776 q 8.8518,49.5031 20.8482,92.32055 l -0.1353,-0.43137 q 19.5529,56.20349 30.5796,65.84962 v -4e-5 q 0.7459,0.65247 1.1179,0.79794 l 2e-4,4e-5 q -1.0511,-0.41094 -1.9165,0.31336 l 10e-5,-10e-5 q 0.047,-0.0396 0.1365,-0.1415 c 2.6679,-3.04985 7.3029,-3.3594 10.3526,-0.69154 3.0497,2.66784 3.3593,7.30284 0.6914,10.35254 z"
         id="path22" />
    </g>
    <g
       style="fill:#fe5721;fill-opacity:1;stroke-linejoin:miter"
       id="g28">
      <path
         d="m -227.829,91.374054 v 0 Q -131.37503,275.5893 -91.87927,396.46185 l 0.006,0.0184 q 28.817995,88.99107 18.95993,139.03355 c -0.01281,0.065 -0.02651,0.12989 -0.04108,0.19459 v 0 Q -92.03218,620.38043 -209.895,665.71716 c -0.2493,0.0959 -0.5035,0.17804 -0.76177,0.24624 v 0 q -93.94613,24.79435 -121.89975,-53.49184 l 0.0104,0.029 q -17.24008,-47.6477 5.966,-118.29726 c 0.0373,-0.11362 0.0774,-0.22624 0.12021,-0.33789 v 0 q 31.62073,-82.43973 80.20503,-119.76905 c 0.13804,-0.10604 0.27973,-0.20712 0.42494,-0.3031 v 0 q 78.91773,-52.15402 119.0335,8.54786 v 0 q 15.86413,24.00506 24.81645,66.19884 c 0.84098,3.9637 -1.69047,7.85868 -5.65417,8.69965 -3.9637,0.84098 -7.85867,-1.69049 -8.69965,-5.65417 v 0 q -8.37466,-39.47113 -22.70427,-61.15424 v 0 q -32.02571,-48.46024 -98.70176,-4.3963 l 0.42493,-0.3031 q -45.30509,34.80972 -75.44487,113.38843 l 0.12021,-0.33789 q -21.62607,65.83922 -6.10864,108.72582 l 0.0104,0.029 q 23.42157,65.59381 104.33658,44.23867 l -0.76177,0.2462 q 110.54065,-42.5202 127.894014,-119.5389 l -0.04108,0.1946 q 9.122284,-46.30744 -18.522924,-131.67695 l 0.006,0.0184 Q -144.94226,281.3109 -240.82826,98.18039 c -1.87952,-3.589646 -0.49318,-8.02328 3.09646,-9.902794 3.58965,-1.879516 8.02329,-0.493186 9.9028,3.096458 z"
         id="path26" />
    </g>
    <g
       style="fill:#fe5721;fill-opacity:1;stroke-linejoin:miter"
       id="g32">
      <path
         d="m 169.84927,303.7435 v 0 q -7.82583,3.5902 -15.07046,4.4891 l 0.11531,-0.0152 -61.52464,8.62634 0.76642,-0.14942 q -19.9941,5.01563 -30.6974,10.46546 c -0.250866,0.12774 -0.508973,0.24094 -0.772847,0.33902 v 0 q -25.355556,9.42438 -54.549186,53.37616 l 0.212788,-0.34018 q -43.049031,73.20284 -29.515239,97.95258 l -0.679526,-1.0272 q 12.446047,15.75904 83.782033,-28.23339 l 0.02545,-0.0156 Q 165.10779,386.16754 201.29501,318.3277 l 0.0159,-0.0296 q 17.62827,-32.68561 13.53033,-56.80091 l 0.0256,0.14197 q -3.95949,-20.8143 -27.4747,-22.89354 c -0.093,-0.008 -0.18572,-0.0182 -0.27834,-0.03 v 0 q -20.19556,-2.5654 -66.06249,16.72536 l 0.28006,-0.12474 Q 45.273712,291.11462 19.887718,314.4291 c -0.06859,0.063 -0.138466,0.12476 -0.209404,0.1851 v 0 q -38.881996,33.0697 -57.98698,60.03518 l 0.210144,-0.31338 q -15.717205,24.79465 -21.106428,67.7888 c -0.50396,4.02046 -4.171736,6.87114 -8.192206,6.36717 -4.020469,-0.50397 -6.871154,-4.17172 -6.367194,-8.1922 v 0 q 5.797576,-46.25195 23.272662,-73.81973 c 0.06737,-0.10626 0.137402,-0.21072 0.210144,-0.31338 v 0 q 20.169224,-28.46762 60.453359,-62.72983 l -0.209405,0.18509 q 27.035667,-24.82956 105.12016,-61.58196 c 0.0924,-0.0435 0.18589,-0.0851 0.28006,-0.12474 v 0 q 49.49747,-20.8177 73.60023,-17.75596 l -0.27834,-0.03 q 34.56468,3.05623 40.59714,34.76771 c 0.009,0.0472 0.0175,0.0946 0.0256,0.14197 v 0 q 4.94393,29.09393 -15.08154,66.22437 l 0.0159,-0.0296 Q 176.17194,396.6026 69.593185,461.73175 l 0.02544,-0.0156 q -82.455995,50.85003 -102.999314,24.83837 c -0.254896,-0.32275 -0.482212,-0.66635 -0.679526,-1.0272 v 0 Q -51.587566,453.47443 -4.319062,373.09653 c 0.067808,-0.1153 0.138776,-0.22876 0.2127874,-0.34018 v 0 Q 27.7266,324.83112 57.553448,313.7448 l -0.772848,0.33903 q 12.181665,-6.20257 33.785036,-11.62189 c 0.252639,-0.0634 0.508474,-0.11324 0.766424,-0.14941 v 0 l 61.52464,-8.62633 0.11532,-0.0152 q 4.99404,-0.61966 10.75881,-3.26431 c 3.68287,-1.68958 8.03809,-0.0737 9.72765,3.60919 1.68956,3.68286 0.0737,8.03808 -3.60921,9.72766 z"
         id="path30" />
    </g>
    <g
       style="fill:#fe5721;fill-opacity:1;stroke-linejoin:miter"
       id="g36">
      <path
         d="m 298.17258,199.67532 v 0 q -1.61528,-2.71698 -2.2843,-4.42476 v 0 q -2.68088,-6.84303 2.97158,-10.20314 l -2.6e-4,1.7e-4 q 4.1877,-2.48964 8.8652,0.54308 v 1e-5 q 3.77258,2.446 14.78722,14.08943 l -0.12759,-0.13156 q 27.12131,27.27149 46.25912,51.34577 l 0.0605,0.0771 q 33.43193,43.22806 54.66078,84.24448 l -9.38498,-3.38 q -1.27576,0.54212 -1.80207,1.2991 v 2e-5 q 1.3407,-1.92833 3.28957,-10.62823 l -0.062,0.30723 q 13.81824,-76.96296 19.77155,-91.31534 l -0.19003,0.51101 q 9.96347,-30.18019 19.99658,-36.80508 l -0.14078,0.0953 q 19.28632,-13.38673 37.36975,11.76547 l -0.76513,-0.90106 q 8.7648,8.7782 35.75909,73.2482 l -0.31296,-0.65461 q 6.7552,12.49955 11.82205,16.70867 c 0.0685,0.057 0.13605,0.11516 0.20252,0.17457 v 0 q 13.86013,12.39469 42.53058,4.55753 l -0.32855,0.0981 q 40.56463,-13.1538 77.0657,-68.53352 l -0.0443,0.068 q 25.06514,-38.96085 43.20986,-107.32713 c 1.03944,-3.91635 5.05684,-6.24857 8.9732,-5.20916 3.91638,1.03942 6.2486,5.05687 5.20914,8.97322 v 0 q -18.7372,70.59868 -45.052,111.502 l -0.0443,0.0681 q -39.3324,59.67553 -84.7912,74.41632 c -0.10875,0.0353 -0.21824,0.068 -0.32853,0.0981 v 0 q -36.37043,9.94195 -56.18087,-7.77383 l 0.20253,0.17456 q -7.25003,-6.02274 -15.35467,-21.01918 c -0.11506,-0.21288 -0.21956,-0.43138 -0.31296,-0.6546 v 0 q -25.88062,-61.8101 -32.6079,-68.54765 c -0.27884,-0.27926 -0.53476,-0.58064 -0.76514,-0.90106 v 0 q -9.65875,-13.43434 -17.08911,-8.27689 c -0.0465,0.0323 -0.0935,0.0641 -0.14077,0.0953 v 0 q -5.78183,3.81777 -14.1482,29.16022 c -0.057,0.17267 -0.12036,0.34306 -0.19003,0.51102 v 0 q -5.34509,12.88601 -18.88275,88.28636 c -0.0185,0.10286 -0.0391,0.20527 -0.0619,0.30723 v 0 q -2.57764,11.50677 -5.56037,15.79694 v 3e-5 q -1.88885,2.71677 -4.50702,3.8293 c -3.53082,1.5004 -7.62152,0.0272 -9.38498,-3.38 v 0 q -20.61782,-39.8358 -53.2365,-82.01235 l 0.0605,0.0771 q -18.63059,-23.4361 -45.17725,-50.12973 c -0.0432,-0.0434 -0.0856,-0.0871 -0.1276,-0.13156 v 0 q -9.80945,-10.36942 -12.1104,-11.86129 v 2e-5 q 2.9696,1.92538 6.6158,-0.24233 l -2.7e-4,1.7e-4 q 5.05633,-3.00574 3.19284,-7.76237 v 0 q 0.2319,0.5919 1.2348,2.27888 c 2.07063,3.48293 0.92569,7.98494 -2.55722,10.05554 -3.48291,2.07061 -7.98495,0.92571 -10.05557,-2.55722 z"
         id="path34" />
    </g>
    <g
       style="fill:#fe5721;fill-opacity:1;stroke-linejoin:miter"
       id="g40">
      <path
         d="m 799.9848,-41.667404 v 0 q -1.26764,87.399566 28.00196,356.258164 L 813.4569,314.17508 Q 846.8957,114.15227 952.41974,56.191303 c 0.19216,-0.105526 0.38876,-0.20235 0.58956,-0.290256 v 0 Q 998.58167,35.9485 1019.3805,78.33203 l -0.8657,-1.36152 q 15.5432,19.35644 31.7498,140.74314 c 0.5363,4.01627 -2.2849,7.70679 -6.3011,8.24302 -4.0162,0.53622 -7.7068,-2.28492 -8.243,-6.30118 v 0 Q 1020.0553,102.32423 1007.0736,86.1578 c -0.3378,-0.420625 -0.6281,-0.877244 -0.8658,-1.36152 v 0 q -14.61,-29.77202 -47.3135,-15.453735 l 0.5895,-0.290255 Q 860.19525,123.58827 827.92944,316.5945 c -0.60424,3.61448 -3.78289,6.22877 -7.44604,6.12398 -3.66315,-0.1048 -6.6872,-2.89655 -7.0838,-6.53965 v 0 Q 784.03235,46.422836 785.31305,-41.880203 c 0.0588,-4.051507 3.39075,-7.288257 7.44225,-7.229497 4.0515,0.05876 7.2883,3.39079 7.2295,7.442296 z"
         id="path38" />
    </g>
    <g
       style="fill:#fe5721;fill-opacity:1;stroke-linejoin:miter"
       id="g44">
      <path
         d="m -169.84988,916.8988 v 0 q 78.74229,144.725 130.542858,267.0215 c 0.01983,0.047 0.03909,0.094 0.05793,0.1409 v 0 q 35.5583322,89.0527 23.322717,128.1016 l -0.0365,0.1133 q -29.792664,89.9418 -141.560105,58.3478 c -0.47299,-0.1337 -0.9315,-0.3147 -1.36832,-0.54 v 0 q -102.44323,-52.856 -96.41841,-164.329 c 0.21871,-4.046 3.67595,-7.1487 7.72197,-6.9299 4.04602,0.2187 7.14868,3.6759 6.92998,7.7219 v 0 q -5.5125,101.9937 88.49449,150.4969 l -1.36832,-0.54 q 98.26054,27.7759 123.63966,-48.8417 l -0.0365,0.1133 q 10.674877,-34.068 -22.947822,-118.2731 l 0.05793,0.1409 Q -104.33925,1068.0068 -182.73898,923.9115 c -1.93651,-3.5592 -0.62104,-8.01434 2.93818,-9.95087 3.55922,-1.93653 8.01441,-0.62103 9.95092,2.93817 z"
         id="path42" />
    </g>
    <g
       style="fill:#fe5721;fill-opacity:1;stroke-linejoin:miter"
       id="g48">
      <path
         d="m -289.4108,938.19855 v 0 q 86.5431,-53.8404 177.25635,-149.47885 c 2.78846,-2.9398 7.43217,-3.06253 10.37201,-0.2741 2.93984,2.7885 3.06257,7.4322 0.27411,10.372 v 0 q -92.00934,97.0049 -180.15143,151.84005 c -3.44046,2.14038 -7.96466,1.08649 -10.10504,-2.354 -2.14038,-3.44049 -1.08646,-7.96475 2.354,-10.1051 z"
         id="path46" />
    </g>
    <g
       style="fill:#fe5721;fill-opacity:1;stroke-linejoin:miter"
       id="g52">
      <path
         d="m 46.04919,964.97876 v 0 q 1.54695,11.92944 1.154767,28.93634 l -4.62e-4,0.019 q -3.398357,132.5035 -2.862968,139.2429 l 7e-6,1e-4 q -0.02175,-0.2739 -0.106811,-0.6627 c 0.117023,0.5349 0.173782,1.0813 0.169223,1.6289 v 0 q -0.176406,21.1876 1.683388,44.2338 l -0.0315,-0.3089 q 5.95746,48.2548 26.914095,65.8324 l -0.782051,-0.5725 q 39.383882,25.0078 97.111152,-62.3644 l -0.14291,0.2251 q 28.76361,-47.1767 46.49751,-105.7766 l 0.0261,-0.084 q 6.34841,-20.1025 9.96469,-37.4022 c 0.085,-0.4068 0.20448,-0.8057 0.35702,-1.1922 l -1.4e-4,4e-4 q -0.0307,0.078 -0.0451,0.1221 l -2e-5,10e-5 q 1.93042,-5.948 8.58498,-69.5125 c 0.0326,-0.3117 0.0852,-0.621 0.1574,-0.926 v 0 q 1.10246,-4.6576 2.79553,-7.4021 l 4e-5,-4e-5 q 2.40531,-3.89892 6.27404,-4.89611 l -1.77091,0.71295 q 8.74256,-4.9271 14.31264,3.73474 l 1.2e-4,2.6e-4 q 0.23828,0.3705 0.46271,0.76866 l 7e-5,1.4e-4 q 2.3818,4.22624 3.44146,12.5599 l -0.0315,-0.2211 q 13.9581,88.2211 20.56767,148.4246 l -0.0388,-0.297 q 3.84934,25.4394 6.9823,37.7587 c 0.99867,3.9269 -1.37518,7.9199 -5.30213,8.9186 -3.92693,0.9986 -7.9199,-1.3753 -8.91857,-5.3022 v 0 q -3.3118,-13.0227 -7.26978,-39.1798 c -0.0149,-0.099 -0.0279,-0.1977 -0.0387,-0.297 v 0 q -6.5714,-59.8558 -20.47504,-147.7328 c -0.0117,-0.0736 -0.0221,-0.1472 -0.0315,-0.22115 v 0 q -0.69724,-5.48345 -1.66837,-7.20655 l 6e-5,10e-5 q -0.0138,-0.0246 -0.0219,-0.0371 l 1.6e-4,2.6e-4 q 1.91684,2.98084 5.2334,1.1117 c -0.55677,0.31384 -1.15206,0.55344 -1.77091,0.71294 v 0 q 1.85408,-0.4779 2.55165,-1.60863 l 5e-5,-7e-5 q -0.44853,0.7271 -1.00498,3.0779 l 0.1574,-0.926 q -6.81517,65.0987 -9.22185,72.5142 l -1e-5,2e-4 q -0.12607,0.3884 -0.26249,0.7341 l 0.35689,-1.1918 q -3.76617,18.0168 -10.33539,38.8185 l 0.0261,-0.084 q -18.27578,60.3904 -48.01348,109.1648 c -0.0464,0.076 -0.0938,0.1507 -0.14291,0.2251 v 0 q -65.67076,99.3949 -117.219191,66.6629 c -0.273109,-0.1734 -0.534185,-0.3646 -0.782051,-0.5725 h -4e-6 q -25.382076,-21.2895 -32.047256,-75.2767 c -0.01269,-0.1028 -0.02318,-0.2057 -0.03151,-0.3088 h -2e-6 q -1.912267,-23.6963 -1.730428,-45.5361 l 0.169222,1.6289 q -0.128634,-0.588 -0.18607,-1.3111 l 6e-6,10e-5 q -0.596409,-7.5074 2.821701,-140.78124 l -4.62e-4,0.019 Q 32.900944,977.687 31.49769,966.8657 c -0.521072,-4.0183 2.31398,-7.69816 6.332266,-8.2192 4.018288,-0.5211 7.698164,2.31395 8.219234,6.33226 z"
         id="path50" />
    </g>
    <g
       style="fill:#fe5721;fill-opacity:1;stroke-linejoin:miter"
       id="g56">
      <path
         d="m 325.46887,862.41113 v 0 q -0.42624,18.76517 8.51139,46.00577 l -0.0815,-0.23483 q 39.60334,108.18883 53.3268,152.72483 l -14.1515,3.8473 q -14.06906,-59.5534 0.0577,-149.2352 c 0.0137,-0.087 0.029,-0.174 0.0459,-0.2605 v 0 q 11.76599,-60.4316 54.63987,-82.9689 c 0.10192,-0.0536 0.20496,-0.1047 0.30929,-0.15343 v 0 q 46.64929,-21.78552 72.75079,14.53333 l -0.0205,-0.0284 q 18.97707,26.14094 34.4904,137.23176 c 0.5604,4.013 -2.2385,7.72044 -6.2515,8.28089 -4.013,0.56045 -7.72045,-2.23845 -8.2809,-6.25145 v 0 Q 505.8083,878.43854 488.98276,855.2612 l -0.0205,-0.0284 q -19.00108,-26.4389 -54.62656,-9.8016 l 0.3093,-0.1534 q -36.6436,19.26224 -47.06443,72.7849 l 0.0459,-0.2605 q -13.67791,86.8323 -0.27206,143.5784 c 0.90963,3.8504 -1.39757,7.7285 -5.21539,8.7665 -3.81781,1.0379 -7.771,-1.1382 -8.9361,-4.9192 v 0 Q 359.59167,1021.0561 320.11963,913.226 c -0.0285,-0.0779 -0.0556,-0.15593 -0.0814,-0.2348 v 0 q -9.72223,-29.63207 -9.23886,-50.9133 c 0.092,-4.0509 3.4505,-7.2602 7.50138,-7.1682 4.05086,0.0921 7.26018,3.4505 7.16817,7.50143 z"
         id="path54" />
    </g>
    <g
       style="fill:#fe5721;fill-opacity:1;stroke-linejoin:miter"
       id="g60">
      <path
         d="m 583.73334,815.72736 v 0 q 74.74156,4.72104 133.34271,-61.92686 l -0.72325,0.97465 q 49.37834,-79.53199 4.3888,-119.84995 l 1.3764,0.9734 q -60.20845,-32.9232 -133.363,55.849 l 0.0524,-0.0643 q -18.89873,23.46895 -33.63488,89.47742 l 0.0634,-0.31637 q -7.0945,39.9711 1.87976,81.58504 l -0.0136,-0.0617 q 20.69095,92.08986 79.15785,113.711 l -0.27455,-0.0954 Q 702.4411,997.6076 786.733,949.4374 c 3.518,-2.01046 7.9996,-0.78835 10.01004,2.72965 2.01046,3.51801 0.78836,7.99965 -2.72967,10.01005 v 0 q -89.93357,51.3944 -162.5683,27.7595 c -0.0922,-0.03 -0.18367,-0.0618 -0.27454,-0.0954 v 0 Q 565.2247,965.4543 542.78564,865.5844 l -0.0136,-0.0617 Q 533.19,821.0903 540.7884,778.2801 c 0.0188,-0.10597 0.0399,-0.2113 0.0634,-0.31635 v 0 q 15.48185,-69.34895 36.5271,-95.4834 l 0.0524,-0.0643 q 80.87156,-98.13674 151.7266,-59.39175 c 0.49475,0.27051 0.9565,0.59711 1.3764,0.97345 v 0 q 54.15375,48.53064 -1.71545,138.5171 c -0.21375,0.34423 -0.45569,0.67034 -0.72325,0.97466 v 0 Q 664.73834,835.5467 582.8083,830.3715 c -4.0439,-0.2554 -7.115,-3.7407 -6.8596,-7.7846 0.25546,-4.0439 3.74075,-7.115 7.78464,-6.85954 z"
         id="path58" />
    </g>
    <g
       style="fill:#fe5721;fill-opacity:1;stroke-linejoin:miter"
       id="g64">
      <path
         d="m 939.5906,446.3359 v 0 q 100.7649,-61.7493 181.0737,-81.8662 c 0.3169,-0.0794 0.6388,-0.13755 0.9635,-0.174 v 0 q 72.4913,-8.1454 95.2528,37.19243 l -0.4173,-0.72501 q 30.3825,46.43778 7.385,166.73318 c -0.013,0.0677 -0.027,0.1356 -0.042,0.2029 v 0 q -22.9087,103.8396 -82.583,220.6173 l -11.3243,-8.89456 Q 1271.4608,657.34845 1306.277,633.6518 c 3.3497,-2.27985 7.9133,-1.4126 10.1932,1.93707 2.2799,3.34967 1.4126,7.91333 -1.9371,10.19317 v 0 q -34.1236,23.22522 -175.0514,144.7522 c -2.6569,2.29116 -6.564,2.38062 -9.323,0.21356 -2.759,-2.16705 -3.5978,-5.9841 -2.0014,-9.10815 v 0 q 58.8172,-115.10035 81.3204,-217.10155 l -0.042,0.2029 q 21.8838,-114.46973 -5.2515,-155.9443 c -0.1527,-0.2335 -0.2921,-0.47566 -0.4173,-0.725 v 0 q -18.1729,-36.19783 -80.5009,-29.1944 l 0.9635,-0.17402 q -78.1257,19.5701 -176.97225,80.14367 c -3.45485,2.11713 -7.97185,1.03272 -10.08899,-2.42211 -2.11713,-3.45484 -1.03272,-7.97181 2.42214,-10.08894 z"
         id="path62" />
    </g>
    <g
       style="fill:#fe5721;fill-opacity:1;stroke-linejoin:miter"
       id="g68">
      <path
         d="m 1365.9165,354.85413 v 0 q 3.031,13.16653 1.0243,19.49317 v 8e-5 q -2.0095,6.3353 -7.9552,7.70407 l -2e-4,3e-5 q -2.4643,0.56726 -5.1991,0.002 l -2e-4,-4e-5 q -5.5984,-1.15696 -13.5675,-7.85578 c -0.5856,-0.49224 -1.0906,-1.07305 -1.4967,-1.72138 v 0 q -45.9454,-73.34743 -68.451,-100.66756 l 0.1684,0.1972 q -3.406,-3.849 -2.6368,-9.38806 v 3.2e-4 q 0.3155,-2.27287 1.3951,-4.77394 c 0.07,-0.16083 0.1448,-0.31958 0.2256,-0.47501 v 0 q 3.6531,-7.03103 13.7964,-11.76496 c 0.2688,-0.12546 0.545,-0.23452 0.8272,-0.32654 v 0 q 49.3061,-16.08718 114.8311,-48.37021 l -0.4273,0.22839 q 41.4721,-23.95695 65.6755,-54.44909 c 0.675,-0.85047 1.5305,-1.5405 2.5046,-2.0203 v -1e-5 q 9.8533,-4.85337 14.7046,4.99524 v -0.009 q -8e-4,-0.002 0.015,0.0315 l 0.01,0.0171 q 0.1348,0.27576 0.2618,0.56502 c 0.3684,0.8394 0.5762,1.74031 0.6127,2.65629 v 0 l 5.6475,141.62402 -0.02,-0.32005 17.8267,212.83323 -0.014,-0.14676 q 9.1433,87.89118 27.024,187.34445 c 0.7171,3.98803 -1.9346,7.80218 -5.9227,8.51916 -3.988,0.71697 -7.8021,-1.93469 -8.5191,-5.92273 v 0 q -17.9767,-99.98693 -27.1767,-188.42263 c -0.01,-0.0489 -0.01,-0.0978 -0.014,-0.14677 v 0 l -17.8266,-212.8332 c -0.01,-0.10655 -0.015,-0.21324 -0.02,-0.32005 v 0 l -5.6475,-141.62401 0.6128,2.6563 q -0.01,-0.0122 -0.01,-0.0197 l 0.01,0.0171 q 0.01,0.0145 0,-0.006 v -0.009 q 1.6326,3.31421 4.9422,1.68402 l 2.5046,-2.0203 q -25.939,32.67869 -69.8288,58.03228 c -0.1401,0.0809 -0.2824,0.15695 -0.4274,0.2284 v 0 q -66.4638,32.74549 -116.7648,49.1573 l 0.8272,-0.32658 q -5.6262,2.62583 -6.9812,5.23365 l 0.2256,-0.475 q -0.2913,0.67471 -0.3332,0.97645 v 3e-4 q 0.1593,-1.14747 -0.9085,-2.35426 c 0.057,0.0647 0.1134,0.13044 0.1684,0.19721 v 0 q 23.1101,28.05395 69.5607,102.20773 l -1.4967,-1.72138 q 5.1297,4.312 7.0956,4.71827 l -2e-4,-3e-5 q -0.4033,-0.0833 -1.0619,0.0683 l -2e-4,4e-5 q -2.2164,0.51026 -2.7394,2.15884 v 9e-5 q 0.7946,-2.50527 -1.337,-11.7652 c -0.9089,-3.94867 1.5552,-7.88653 5.5038,-8.79553 3.9486,-0.90899 7.8866,1.55512 8.7955,5.50379 z"
         id="path66" />
    </g>
    <g
       style="fill:#fe5721;fill-opacity:1;stroke-linejoin:miter"
       id="g72">
      <path
         d="m 1519.9496,10.377474 v 0 q 6.7201,21.207796 40.2269,89.819996 l -0.1389,-0.27017 q 42.0732,77.80843 77.3998,149.43928 l -0.1922,-0.36368 q 85.0209,150.49356 88.6447,162.63965 l 2e-4,5.8e-4 q 1.9161,6.42407 -3.3552,9.4021 l 0.038,-0.0218 q -0.2346,0.13444 -0.4782,0.25138 c -3.653,1.75339 -8.0356,0.21352 -9.789,-3.43936 -1.7534,-3.65289 -0.2136,-8.03558 3.4394,-9.78897 v 0 q -0.2376,0.11401 -0.4664,0.24508 l 0.038,-0.0218 q -4.917,2.7779 -3.4885,7.56734 l 2e-4,5.8e-4 q -3.1511,-10.56174 -87.3595,-159.61722 c -0.067,-0.11954 -0.1315,-0.24054 -0.1921,-0.36368 v 0 q -35.204,-71.38249 -77.1471,-148.95011 c -0.048,-0.0892 -0.094,-0.17907 -0.1389,-0.27017 v 0 q -33.9822,-69.585426 -41.0297,-91.826656 c -1.224,-3.862654 0.915,-7.9861584 4.7777,-9.2101074 3.8627,-1.2239489 7.9861,0.915144 9.2101,4.7777974 z"
         id="path70" />
    </g>
    <g
       style="fill:#fe5721;fill-opacity:1;stroke-linejoin:miter"
       id="g76">
      <path
         d="m 1769.2301,466.20514 v 0 l -56.8962,6.32178 c -4.0271,0.44745 -7.6545,-2.45444 -8.102,-6.4816 -0.4475,-4.02716 2.4545,-7.65457 6.4816,-8.10202 v 0 l 56.8962,-6.32178 c 4.0271,-0.44745 7.6545,2.45444 8.102,6.4816 0.4475,4.02716 -2.4545,7.65458 -6.4816,8.10202 z"
         id="path74" />
    </g>
    <g
       style="fill:#9c26b0;fill-opacity:1;stroke-linejoin:miter"
       id="g80">
      <path
         d="m -465.448,1922.6102 v 0 Q 44.769836,1731.5912 1807.6368,736.5443 c 35.2863,-19.9172 80.0375,-7.45824 99.9548,27.828 19.9172,35.28627 7.4582,80.0375 -27.8281,99.9547 v 0 Q 106.93237,1864.9982 -414.0003,2060.0286 c -37.94706,14.2068 -80.22617,-5.0381 -94.43305,-42.9853 -14.20691,-37.947 5.0383,-80.2262 42.98535,-94.4331 z"
         id="path78" />
    </g>
    <g
       style="fill:#9c26b0;fill-opacity:1;stroke-linejoin:miter"
       id="g84">
      <path
         d="m -475.67374,2505.5117 v 0 L 1311.7178,1562.2313 c 2.2717,-1.1988 4.6048,-2.2776 6.9897,-3.2318 v 0 q 66.8858,-26.7602 427.5868,-266.5094 c 33.7451,-22.4296 79.2836,-13.2566 101.7131,20.4885 22.4296,33.7452 13.2566,79.2836 -20.4885,101.7132 v 0 q -373.3353,248.1468 -454.3055,280.5421 l 6.9897,-3.2318 -1787.3915,943.2801 c -35.8352,18.9116 -80.2163,5.1927 -99.128,-30.6426 -18.9117,-35.8352 -5.19254,-80.2163 30.64266,-99.1279 z"
         id="path82" />
    </g>
    <g
       style="fill:#9c26b0;fill-opacity:1;stroke-linejoin:miter"
       id="g88">
      <path
         d="m 212.92192,2588.1208 v 0 q 100.21031,3.9515 506.99488,-229.4445 c 0.55634,-0.3191 1.11884,-0.6321 1.68336,-0.9366 v 0 Q 1476.9507,1950.3285 1764.5106,1741.078 c 32.7631,-23.841 78.6498,-16.608 102.4907,16.155 23.841,32.7631 16.6081,78.6498 -16.155,102.4908 v 0 Q 1555.3018,2074.7847 791.257,2486.8853 l 1.68337,-0.9366 q -443.40384,254.4068 -585.79991,248.7918 c -40.48784,-1.5965 -72.01551,-35.7127 -70.41899,-76.2005 1.59651,-40.4878 35.71261,-72.0156 76.20045,-70.4192 z"
         id="path86" />
    </g>
    <g
       style="fill:#006c79;fill-opacity:1;stroke-linejoin:miter"
       id="g92">
      <path
         d="m -175.70334,1649.4011 v 0 l -50.63766,-49.31 109.3665,-97.2561 q 25.52765,33.2318 52.4054,87.0188 c 0.3733,0.747 0.73359,1.4998 1.081162,2.2591 v 0 q 94.425743,206.2859 156.960028,325.24 l -0.89345,-1.6481 96.42299,172.564 c 0.11014,0.197 0.21964,0.3955 0.32794,0.5935 v 0 q 350.45083,641.0257 503.5021,806.0197 c 27.55613,29.7064 25.81298,76.1268 -3.89344,103.683 -29.70643,27.556 -76.12683,25.813 -103.68298,-3.8934 v 0 Q 419.7885,2816.2932 60.580643,2159.2495 l 0.327942,0.5935 -96.422989,-172.564 c -0.304631,-0.5451 -0.602848,-1.0953 -0.893448,-1.648 v 0 Q -100.81079,1863.1222 -196.90793,1653.1849 l 1.08115,2.2592 q -20.57442,-41.173 -37.51177,-63.2219 c -23.4391,-30.513 -19.32394,-73.9499 9.42823,-99.5182 28.75216,-25.5684 72.37242,-24.5811 99.93827,2.2621 v 0 l 50.63766,49.31 c 29.02949,28.2685 29.64647,74.7174 1.37807,103.747 -28.2684,29.0295 -74.71752,29.6465 -103.74702,1.378 z"
         id="path90" />
    </g>
    <g
       style="fill:#006c79;fill-opacity:1;stroke-linejoin:miter"
       id="g96">
      <path
         d="m 428.57092,1183.2561 v 0 q 116.03788,78.2609 238.43592,284.9192 l -4.58948,-6.8413 q 55.00989,72.8047 416.14094,789.877 c 0.071,0.1415 0.1427,0.2844 0.2131,0.4262 v 0 q 53.1665,107.2981 253.4052,368.2098 c 24.6694,32.144 18.6098,78.2006 -13.5343,102.8698 -32.144,24.6692 -78.2004,18.6096 -102.8697,-13.5344 v 0 q -208.9558,-272.27 -268.4792,-392.3972 l 0.21295,0.4262 Q 592.34863,1612.0002 545.3451,1549.7917 c -1.6567,-2.1926 -3.18903,-4.4767 -4.5895,-6.8413 v 0 Q 435.18512,1364.704 346.52417,1304.9072 c -33.59305,-22.6566 -42.4588,-68.2558 -19.80222,-101.8489 22.65659,-33.593 68.25592,-42.4588 101.84897,-19.8022 z"
         id="path94" />
    </g>
    <g
       style="fill:#006c79;fill-opacity:1;stroke-linejoin:miter"
       id="g100"
       transform="matrix(0.98480775,-0.17364818,0.2600744,1.4749552,-267.59351,-203.54827)">
      <path
         d="m 1295.9082,826.7263 v 0 q 51.043,155.55135 496.697,1053.5894 c 18.0119,36.2958 3.1898,80.3209 -33.1059,98.3327 -36.2958,18.0119 -80.321,3.1899 -98.3328,-33.1059 v 0 Q 1210.8215,1038.052 1156.489,872.4756 c -12.6333,-38.4995 8.3355,-79.9509 46.835,-92.5842 38.4995,-12.6333 79.9509,8.3354 92.5842,46.8349 z"
         id="path98" />
    </g>
    <g
       style="fill:#3bfbff;fill-opacity:1;stroke-linejoin:miter"
       id="g104">
      <path
         d="m 195.05542,3258.842 h 2e-5 q -19.67005,17.4527 -24.4023,23.7637 l 3e-4,-5e-4 q 23.3857,-31.188 -6.93154,-65.3567 l 2e-5,3e-4 q -21.65159,-24.4021 -47.59263,-18.4251 l -4.4e-4,3e-4 q 25.86459,-5.9597 150.29202,-73.4783 l -2.73252,1.5767 1784.88585,-1093.0242 c 28.4133,-17.3997 65.552,-8.4714 82.9518,19.9418 17.3995,28.4134 8.4713,65.552 -19.942,82.9517 v 0 L 326.69806,3229.816 c -0.89682,0.549 -1.8082,1.075 -2.73251,1.5766 v 0 q -138.8686,75.355 -180.74587,85.0041 l -4.3e-4,3e-4 q -43.85879,10.1054 -69.74707,-19.0716 l 2.6e-5,3e-4 q -35.045219,-39.4973 0.650459,-87.1023 l 3.15e-4,-4e-4 q 12.05468,-16.0763 40.85601,-41.631 c 24.92191,-22.1125 63.0508,-19.835 85.16328,5.087 22.11249,24.9218 19.83504,63.0505 -5.08685,85.163 z"
         id="path102" />
    </g>
    <g
       style="fill:#3bfbff;fill-opacity:1;stroke-linejoin:miter"
       id="g108">
      <path
         d="m -197.93364,2558.3025 v 0 q 102.07979,-22.4348 313.57704,-149.2671 c 15.85558,-9.5084 35.19568,-11.2212 52.47562,-4.6477 h -0.007 q -22.92867,-8.719 -42.17355,0.1435 l 7.6e-4,-5e-4 Q 191.025,2374.556 1276.8818,1663.705 c 0.6892,-0.4512 1.388,-0.8883 2.095,-1.311 v 0 l 598.4113,-357.6213 c 28.5996,-17.0917 65.6396,-7.7626 82.7313,20.837 17.0916,28.5997 7.7626,65.6397 -20.8371,82.7314 v 0 l -598.4112,357.6213 2.095,-1.3109 Q 249.62143,2480.4045 176.40553,2514.12 l 7.5e-4,-4e-4 q -26.76346,12.325 -51.17906,3.0406 l 52.46821,-4.6507 q -228.400035,136.9685 -349.73014,163.6343 c -32.54097,7.1519 -64.71831,-13.4302 -71.87011,-45.9712 -7.15179,-32.541 13.43021,-64.7183 45.97118,-71.8701 z"
         id="path106" />
    </g>
    <g
       style="fill:#3bfbff;fill-opacity:1;stroke-linejoin:miter"
       id="g112">
      <path
         d="m -490.2931,2168.196 v 0 q 280.22315,-115.3813 748.2777,-378.0804 l -1.13795,0.655 Q 1702.6671,937.39154 1781.0327,904.05707 l 5e-4,-1.7e-4 q 52.4619,-22.31526 79.6316,23.741 l -0.014,-0.0239 q 18.0611,30.58398 0.1108,61.4082 c -16.7666,28.7914 -53.6986,38.5396 -82.49,21.7729 -28.7914,-16.76649 -38.5396,-53.6985 -21.7729,-82.48995 v 0 q -17.6564,30.31947 0.2614,60.6608 l -0.014,-0.0239 q 26.5979,45.08715 71.5137,25.98155 l 5e-4,-1e-4 q -71.0815,30.2361 -1510.08522,879.5916 c -0.37698,0.2225 -0.7562,0.4408 -1.13794,0.655 v 0 q -474.41812,266.2711 -761.39297,384.4323 c -30.80827,12.6853 -66.06669,-2.0061 -78.75187,-32.8145 -12.68527,-30.8084 2.0064,-66.0666 32.8146,-78.752 z"
         id="path110" />
    </g>
    <g
       style="fill:#ffc107;fill-opacity:1;stroke-linejoin:miter"
       id="g116">
      <path
         d="m -12.062244,1303.4244 v 0 Q 102.06888,1409.3123 268.7221,1660.5149 l -0.71316,-1.0508 q 127.06964,183.0518 509.19266,847.1121 l -0.96375,-1.616 q 95.30495,154.2835 271.26275,378.4121 c 20.574,26.2063 16.0081,64.1294 -10.1984,84.7034 -26.2063,20.574 -64.1292,16.0078 -84.7032,-10.1985 h -6e-5 Q 772.45526,2728.4165 673.58954,2568.369 c -0.32934,-0.5333 -0.65119,-1.0729 -0.96374,-1.616 v 0 Q 293.05075,1907.1206 168.89499,1728.2664 c -0.24119,-0.3474 -0.47934,-0.6984 -0.71317,-1.0508 v 0 Q 9.4728775,1487.9878 -94.12331,1391.8739 c -24.42463,-22.6605 -25.85472,-60.8306 -3.19418,-85.2552 22.66054,-24.4247 60.830613,-25.8548 85.255246,-3.1943 z"
         id="path114" />
    </g>
    <g
       style="fill:#ffc107;fill-opacity:1;stroke-linejoin:miter"
       id="g120">
      <path
         d="m 628.18243,1056.1768 v 0 q 209.19467,291.1525 380.72097,593.934 l -1.5663,-2.6092 q 103.9728,163.694 388.5929,823.8456 l -2.1379,-4.4485 q 77.8289,146.3015 123.9877,193.6257 c 23.2637,23.8511 22.7875,62.0449 -1.0635,85.3086 -23.8509,23.2637 -62.0449,22.7876 -85.3086,-1.0635 v 0 q -58.2032,-59.6728 -144.1346,-221.2053 c -0.7729,-1.4529 -1.4865,-2.9372 -2.138,-4.4485 v 0 Q 1004.316,1867.7803 905.491,1712.1908 c -0.54404,-0.8566 -1.06613,-1.7263 -1.5663,-2.6093 v 0 Q 735.60156,1412.4543 530.1984,1126.5789 c -19.44095,-27.0575 -13.2666,-64.7521 13.791,-84.1932 27.05754,-19.4409 64.75206,-13.2664 84.19303,13.7911 z"
         id="path118" />
    </g>
    <g
       style="fill:#03a9f4;fill-opacity:1;stroke-linejoin:miter"
       id="g124">
      <path
         d="m -326.7637,47.346695 v 0 Q 614.54333,-174.94229 681.58545,-181.28049 h 5e-5 q 12.9868,-1.22773 23.6253,1.28548 l -24.9155,-0.59618 q 237.1012,-44.15944 676.7992,-108.16375 l -0.1082,0.0158 q 35.5503,-5.24064 133.6512,-26.33826 l -2.1396,0.50106 q 258.575,-65.54644 333.5036,-118.9435 c 27.1328,-19.3359 64.8029,-13.0153 84.1389,14.11746 19.3359,27.13274 13.0154,64.80304 -14.1174,84.13894 v 0 q -93.362,66.53336 -373.8781,137.6417 c -0.7101,0.18 -1.4233,0.34704 -2.1395,0.50106 v 0 q -101.9641,21.9285 -141.4231,27.74529 l -0.1082,0.0158 q -437.3337,63.66017 -672.08726,107.382357 c -8.2561,1.537678 -16.74234,1.334629 -24.91554,-0.596177 v -3e-6 q 8.6871,2.05222 15.47017,1.41098 l 3e-5,-3e-6 q -58.76267,5.555503 -991.9756,225.933056 c -32.42574,7.65732 -64.91948,-12.42147 -72.5768,-44.8472 -7.65732,-32.42574 12.42145,-64.91947 44.8472,-72.576785 z"
         id="path122" />
    </g>
    <g
       style="fill:#03a9f4;fill-opacity:1;stroke-linejoin:miter"
       id="g128">
      <path
         d="m -248.716,754.8459 v 0 q 71.58645,-68.98335 570.8666,-245.40986 c 0.10184,-0.036 0.2036,-0.0716 0.3056,-0.10706 v 0 l 1028.7149,-357.30933 -1.1964,0.42974 q 76.5772,-28.41994 312.1425,-78.86905 c 32.5788,-6.97718 64.6454,13.77708 71.6225,46.35594 6.9772,32.57886 -13.7771,64.64537 -46.3559,71.62254 v 0 q -227.0326,48.62175 -295.4288,74.00551 c -0.3974,0.14743 -0.7962,0.29067 -1.1965,0.42972 v 0 l -1028.71495,357.30929 0.3056,-0.10704 q -474.60373,167.7068 -527.34433,218.5296 c -23.99127,23.1189 -62.18158,22.4117 -85.30044,-1.5796 -23.11888,-23.9913 -22.41166,-62.1815 1.57962,-85.3004 z"
         id="path126" />
    </g>
    <g
       style="fill:#03a9f4;fill-opacity:1;stroke-linejoin:miter"
       id="g132">
      <path
         d="m -19.402674,1332.2424 v 0 q 38.96732,-6.1401 127.857324,-45.781 l -2.34145,1.105 Q 566.89075,1057.8928 774.94977,979.5663 l -0.97211,0.3756 Q 1267.2439,784.45197 1720.836,622.7777 c 1.111,-0.396 2.2336,-0.7593 3.3659,-1.0895 v 0 q 57.3187,-16.7147 304.2457,-150.39868 c 29.2992,-15.86232 65.9101,-4.9696 81.7724,24.32968 15.8623,29.29926 4.9697,65.91004 -24.3296,81.7724 v 0 q -258.2411,139.8093 -327.9116,160.1259 l 3.3658,-1.0895 Q 1309.7368,897.39496 818.431,1092.1079 c -0.3224,0.1278 -0.64743,0.2534 -0.9721,0.3756 v 0 q -202.27604,76.1495 -657.52184,303.0658 c -0.77274,0.3851 -1.5529,0.7533 -2.34145,1.105 v 0 q -103.475508,46.1453 -158.2183269,54.7712 c -32.9115331,5.186 -63.7956331,-17.29 -68.9815771,-50.2015 -5.185946,-32.9115 17.290094,-63.7957 50.20162,-68.9816 z"
         id="path130" />
    </g>
    <g
       style="fill:#03a9f4;fill-opacity:1;stroke-linejoin:miter"
       id="g136">
      <path
         d="m -438.6191,-915.63477 v 0 q 80.28878,-76.26833 224.92887,-129.25953 l -2.80943,1.1099 q 81.77453,-34.6951 207.359438,-53.7827 c 0.328051,-0.05 0.655165,-0.097 0.983993,-0.1414 v 0 l 575.041029,-77.7294 c 0.5774,-0.078 1.156,-0.1477 1.7354,-0.209 v 0 l 853.7903,-90.3088 c 0.2497,-0.026 0.4993,-0.051 0.7492,-0.075 v 0 q 26.6139,-2.4796 204.2285,-32.4143 c 1.2967,-0.2185 2.6004,-0.3946 3.9087,-0.5279 v 0 q 88.529,-9.0235 143.5724,17.9561 c 29.9171,14.664 42.2822,50.804 27.6182,80.7211 -14.6639,29.9171 -50.8039,42.2822 -80.721,27.6183 v 0 q -24.0475,-11.787 -78.2353,-6.2638 l 3.9088,-0.528 q -182.0241,30.6779 -213.0875,33.5721 l 0.7492,-0.075 -853.79024,90.3088 1.73534,-0.209 -575.041023,77.72935 0.983993,-0.14125 q -110.57018,16.8056 -178.36495,45.5693 c -0.92687,0.39324 -1.86405,0.7635 -2.80944,1.10985 v -5e-5 q -121.17115,44.3931 -183.33781,103.4467 c -24.15617,22.94654 -62.34039,21.96595 -85.28693,-2.19024 -22.94654,-24.15616 -21.96591,-62.34039 2.19026,-85.28693 z"
         id="path134" />
    </g>
    <g
       style="fill:#ffc107;fill-opacity:1;stroke-linejoin:miter"
       id="g140">
      <path
         d="m 1435.6461,672.9559 v 0 q 181.5447,192.5993 241.2274,351.0343 l 0.018,0.048 q 112.8041,300.2291 197.9787,489.6052 l -90.1247,-24.3146 q 49.2473,-35.2407 84.7273,14.3118 v 0.01 q 4.7075,6.576 8.3835,15.5864 l 4e-4,10e-4 q 11.6633,28.5894 67.2722,231.2822 l -3.8585,-10.2844 q 53.4183,110.5571 192.4477,504.71 c 11.083,31.4201 -5.404,65.8758 -36.824,76.9588 -31.4202,11.083 -65.8759,-5.404 -76.9588,-36.824 h -1e-4 q -136.7997,-387.8319 -187.302,-492.3541 c -1.5962,-3.3037 -2.8878,-6.7461 -3.8585,-10.2844 v 0 q -53.698,-195.7278 -62.6328,-217.6289 l 3e-4,10e-4 q 1.679,4.1153 5.2234,9.0666 v 0.01 q 34.7407,48.5201 83.5854,13.5674 c -14.6948,10.5208 -33.3498,13.8957 -50.8132,9.1864 -17.4634,-4.7092 -31.8924,-17.0055 -39.3114,-33.5009 v 0 q -86.7405,-192.8576 -200.8869,-496.6595 l 0.018,0.048 Q 1512.807,930.7173 1347.8485,755.71405 c -22.853,-24.24465 -21.725,-62.4248 2.5197,-85.27785 24.2446,-22.853 62.4249,-21.72496 85.2779,2.5197 z"
         id="path138" />
    </g>
    <path
       style="fill:none;stroke:#000000;stroke-width:106.234;stroke-dasharray:none"
       d="m -342.3535,3584.6664 c 21.71091,-33.9536 44.5414,-92.3028 84.03853,-112.0514 42.29772,-21.149 2.96511,1.0095 35.01605,-7.0032 7.37388,-1.8434 12.68646,-9.7777 21.00965,-7.0032 42.54528,14.1817 68.36884,75.7748 91.04173,112.0514 47.862212,76.5795 70.032113,103.1382 70.032113,196.0899 0,7.0032 2.84427,14.61 0,21.0095 -17.831031,40.1199 -57.170978,83.8257 -91.041733,112.0514 -6.46598,5.3884 -15.05807,8.0549 -21.00964,14.0064 -3.69101,3.6911 -3.31221,10.3155 -7.00321,14.0066 -21.13893,21.1389 -46.11616,38.0887 -70.03211,56.0257 -13.46691,10.1002 -26.96281,20.4845 -42.01927,28.0127 -6.6027,3.3015 -13.84801,5.2129 -21.00964,7.0032 -2.2647,0.5662 -5.35253,-1.6506 -7.00321,0 -1.65067,1.6506 1.65068,5.3526 0,7.0032 -1.65067,1.6508 -4.67474,-0.1673 -7.00321,0 -30.35955,2.1687 -60.64691,5.4035 -91.04174,7.0032 -20.9806,1.1043 -42.01927,0 -63.02891,0 -5.92141,0 -24.36889,3.644 -28.01284,0 -4.95202,-4.9519 0,-14.0064 0,-21.0096 0,-35.1511 7.8184,-23.6157 42.01927,-35.0159 40.94421,-13.6481 -28.26191,-2.966 49.02248,-14.0066 40.08172,-5.726 19.31062,9.7121 63.0289,28.013 87.20402,36.5039 177.83879,64.2343 266.122012,98.0448 16.200427,6.2045 118.379708,64.6996 140.064227,56.0257 26.060545,-10.4242 52.585541,-59.6706 63.028911,-84.0385 1.83914,-4.2913 -0.91563,-9.4282 0,-14.0063 1.44772,-7.2388 4.6688,-14.0066 7.0032,-21.0098"
       id="path1908" />
    <path
       style="fill:none;stroke:#000000;stroke-width:106.234;stroke-dasharray:none"
       d="m 287.9355,3703.721 c 4.6688,-9.3377 6.6244,-20.6308 14.00643,-28.013 7.38204,-7.3819 19.99278,-7.3229 28.01283,-14.0064 13.71034,-11.4251 35.93771,-50.9761 56.0257,-63.0288 2.22666,-1.3359 39.79261,-1.3359 42.01926,0 14.57609,8.7456 57.57377,52.128 70.03212,63.0288 31.63052,27.6768 23.41286,12.1415 49.02247,42.0194 22.73984,26.5297 40.28906,57.5087 63.0289,84.0384 14.00644,16.3409 26.80084,33.804 42.01927,49.0225 3.69103,3.6911 11.67203,2.3345 14.00643,7.0032 3.13193,6.2641 -2.21462,14.366 0,21.0098 4.84879,14.5463 31.58116,35.2828 35.01606,49.0223 2.83089,11.3237 0,23.3443 0,35.0161 0,16.863 3.89853,47.4349 0,63.0289 -2.53202,10.1281 -10.12921,18.3197 -14.00644,28.013 -0.86697,2.1674 1.29491,5.0607 0,7.0032 -9.15626,13.7344 -24.14629,22.5935 -35.01605,35.0159 -20.04622,22.91 -37.57945,46.0626 -63.02888,63.0289 -1.94235,1.2949 -4.78861,-0.7381 -7.00324,0 -67.75723,22.5857 -113.4791,18.1882 -175.08025,-28.0128 -60.27906,-45.2092 -118.27749,-105.0492 -168.07708,-161.0739 -31.23619,-35.1407 3.36723,-0.2688 -7.00321,-21.0095 -6.08739,-12.1749 -13.45918,-23.6904 -21.00964,-35.0162 -1.83126,-2.7469 -5.95923,-3.8711 -7.00321,-7.0032 -5.43148,-16.2943 -11.43731,-163.6429 -7.00321,-168.0771 3.30134,-3.3012 9.83051,2.088 14.00642,0 9.31115,-4.6554 11.50472,-18.5077 14.00644,-21.0095 5.21986,-5.2201 15.78972,-1.7834 21.00961,-7.0032 3.69103,-3.6911 2.33441,-11.6721 7.00321,-14.0063 2.95281,-1.4767 4.17235,5.3045 7.00323,7.0031 8.95201,5.3712 18.67522,9.3374 28.01283,14.0064 z"
       id="path1920" />
    <path
       style="fill:none;stroke:#000000;stroke-width:106.234;stroke-dasharray:none"
       d="m 855.19561,3633.6889 c 23.33311,-18.6665 55.25259,-47.1685 84.03853,-56.0257 20.08058,-6.1788 43.09742,6.6439 63.02886,0 2.2147,-0.7383 -1.6506,-5.3525 0,-7.0032 3.3014,-3.3014 9.8305,-2.088 14.0065,0 2.9528,1.4764 4.0504,5.5268 7.0032,7.0032 6.6027,3.3012 15.2452,2.3916 21.0096,7.0032 6.5724,5.258 8.6181,14.5436 14.0064,21.0095 7.0033,7.0032 14.0065,14.0064 21.0097,21.0099 2.3344,0 5.3525,-1.6509 7.0032,0 12.1179,12.1177 29.3646,47.2104 42.0193,63.0288 4.1246,5.1558 10.6093,8.3447 14.0064,14.0064 5.1353,8.5587 41.7627,90.0156 42.0192,91.0416 3.3015,13.2061 3.3638,81.2264 0,98.045 -5.6363,28.1819 -5.1104,3.2176 -14.0064,21.0096 -3.3013,6.6027 -3.0907,14.7497 -7.0032,21.0098 -7.9221,12.6752 -19.3248,22.8527 -28.0128,35.0159 -3.034,4.2477 -3.3122,10.3155 -7.0032,14.0066 -1.6507,1.6506 -5.3526,-1.6509 -7.0033,0 -3.691,3.6908 -4.1077,9.663 -7.0032,14.0064 -11.1391,16.7086 -32.9574,22.9671 -49.0224,35.0159 -5.2822,3.9617 -8.2737,10.7306 -14.0065,14.0066 -10.9148,6.2369 -23.772,8.3845 -35.016,14.0063 -98.47541,49.2377 66.3989,-26.9371 -42.01931,35.0162 -8.35683,4.7752 -19.2174,3.0941 -28.01282,7.0032 -11.67204,7.0032 -23.34405,14.0063 -35.01606,21.0095 -4.66883,0 -9.57722,-1.4764 -14.00644,0 -7.0032,2.3345 -18.67521,14.0064 -21.00961,7.0032 -2.21463,-6.6438 2.21459,-14.3657 0,-21.0095 -0.73822,-2.2147 -5.35255,1.6506 -7.00324,0 -1.65065,-1.6506 1.04399,-4.9155 0,-7.0032 -1.4764,-2.953 -5.95922,-3.8714 -7.0032,-7.0032 -1.38322,-4.1497 -3.19004,-60.462 0,-70.0323 6.06126,-18.1838 26.85899,-21.0096 42.01926,-21.0096 26.97343,0 53.86576,9.4248 77.03535,21.0096 10.80344,5.4017 16.72458,24.2502 28.01277,28.013 4.4293,1.4763 9.8306,-2.0881 14.0065,0 2.0879,1.044 -1.044,4.9151 0,7.0031 5.8034,11.6068 20.0758,13.0726 28.0128,21.0096 3.691,3.6911 3.3122,10.3155 7.0032,14.0066 8.8969,8.8968 23.6201,18.1606 35.0161,21.0095 4.1477,1.0369 26.4676,11.2775 35.0161,7.0032 2.1248,-1.0623 27.0575,-33.5831 28.0128,-35.0161 1.2949,-1.9423 -1.6507,-5.3524 0,-7.0032 8.2533,-8.2533 22.7929,-10.5697 28.0128,-21.0096 1.044,-2.088 -1.6506,-5.3525 0,-7.0031 1.6507,-1.6506 4.9153,1.044 7.0032,0 7.5313,-3.7658 21.0097,-15.7683 21.0097,-21.0098"
       id="path1922" />
    <path
       style="fill:none;stroke:#000000;stroke-width:106.234;stroke-dasharray:none"
       d="m 1457.4718,3605.6759 c 96.6531,-154.6449 -5.16,-8.8463 56.0257,-70.032 1.6506,-1.6506 -1.6507,-5.3526 0,-7.0032 6.8323,-6.8324 64.2127,1.5077 77.0353,7.0032 23.1079,9.9033 36.807,15.2004 56.0257,28.0127 8.2406,5.4939 13.0864,15.0674 21.0096,21.0098 34.4972,25.8729 -12.6441,-26.6505 42.0193,28.0127 5.9516,5.9518 8.6181,14.5437 14.0064,21.0098 10.5673,12.6809 24.7044,22.1263 35.0161,35.0159 10.5159,13.1448 18.2285,28.3214 28.0128,42.0194 27.6105,38.6546 60.0475,73.7537 77.0353,119.0546 3.777,10.072 0,31.1604 0,42.0193 0,11.6719 4.8299,24.3901 0,35.0159 -7.5445,16.5982 -22.1239,29.1271 -35.016,42.0193 -19.5565,19.5566 -86.1359,56.55 -112.0514,63.0289 -11.5478,2.8869 -23.8295,2.9355 -35.0161,7.0032 -36.9394,-16.1204 -35.5781,26.837 -56.0257,35.0162 -6.5023,2.6008 -14.3658,-2.2147 -21.0096,0 -25.973,8.6575 -90.9202,41.938 -112.0514,56.0257 -5.4937,3.6624 -8.3446,10.6092 -14.0064,14.0063 -2.6866,1.6121 -65.8233,22.4241 -70.0321,14.0064 -2.088,-4.1758 0,-9.3377 0,-14.0064 -2.3344,-4.6687 -4.1077,-9.6632 -7.0032,-14.0063 -9.7371,-14.6058 -17.0444,-40.964 -7.0032,-56.0257 25.9489,-38.9235 60.3214,-12.3924 98.0449,-7.0032 6.9329,0.9903 14.3658,-2.2147 21.0097,0 2.2146,0.738 -1.6507,5.3526 0,7.0032 27.3316,27.3317 3.761,-1.6212 21.0096,7.0031 12.8893,6.4447 36.8925,18.9154 49.0225,28.0128 14.7063,11.0299 27.3129,23.9864 42.0192,35.0161 8.786,6.5894 31.2842,18.8626 42.0193,21.0096 6.8672,1.3736 14.2155,-1.6985 21.0096,0 3.2028,0.8007 4.0504,5.5268 7.0032,7.0034 6.2639,3.1318 14.1425,-1.3736 21.0097,0 28.192,5.6383 42.8392,10.877 70.0321,0 11.9256,-13.9511 28.5483,-2.513 42.0193,-7.0034 2.2146,-0.7381 -1.6507,-5.3524 0,-7.0032 1.6507,-1.6506 4.7385,0.5662 7.0032,0 7.1616,-1.7903 14.8674,-2.9084 21.0096,-7.0032 1.9424,-1.295 -1.044,-4.9152 0,-7.0032 14.5729,-29.1457 -0.4835,7.4868 14.0064,-7.0032 4.9521,-4.952 -3.1319,-14.7457 0,-21.0095 9.3376,-18.6753 7.0032,21.0095 7.0032,-7.0034"
       id="path1924" />
  </g>
</svg>
